<?xml version="1.0" encoding="utf-8"?>
<!-- Generator: Adobe Illustrator 22.1.0, SVG Export Plug-In . SVG Version: 6.00 Build 0)  -->
<svg version="1.1" id="Layer_1" xmlns="http://www.w3.org/2000/svg" xmlns:xlink="http://www.w3.org/1999/xlink" x="0px" y="0px"
	 viewBox="0 0 24.6 10" style="enable-background:new 0 0 24.6 10;" xml:space="preserve">
<style type="text/css">
	.st0{fill:#696566;}
</style>
<g id="g188" transform="translate(329.779, 270.223)">
	<path id="path190" class="st0" d="M-327.2-269.4c-0.3-0.7-1.1-1-1.8-0.7c-0.7,0.3-1,1.1-0.7,1.8l3,6.5c0.5,1,1,1.6,1.9,1.6
		c1,0,1.4-0.6,1.9-1.6c0,0,2.6-5.7,2.6-5.8c0-0.1,0.1-0.2,0.4-0.2c0.2,0,0.4,0.2,0.4,0.4v5.6c0,0.9,0.5,1.6,1.4,1.6
		c0.9,0,1.4-0.7,1.4-1.6v-4.6c0-0.9,0.6-1.5,1.5-1.5s1.4,0.6,1.4,1.5v4.6c0,0.9,0.5,1.6,1.4,1.6c0.9,0,1.4-0.7,1.4-1.6v-4.6
		c0-0.9,0.6-1.5,1.5-1.5c0.9,0,1.4,0.6,1.4,1.5v4.6c0,0.9,0.5,1.6,1.4,1.6c0.9,0,1.4-0.7,1.4-1.6v-5.2c0-1.9-1.5-3.2-3.4-3.2
		c-1.8,0-3,1.3-3,1.3c-0.6-0.8-1.5-1.3-2.9-1.3c-1.5,0-2.8,1.3-2.8,1.3c-0.6-0.8-1.7-1.3-2.5-1.3c-1.3,0-2.4,0.6-3.1,2.1l-1.9,4.5
		L-327.2-269.4z"/>
</g>
</svg>
